<?xml version="1.0" encoding="UTF-8" standalone="no"?>
<!-- Generator: Adobe Illustrator 16.0.0, SVG Export Plug-In . SVG Version: 6.00 Build 0)  -->

<svg
   version="1.1"
   id="Layer_1"
   x="0px"
   y="0px"
   width="999.99994"
   height="789.0379"
   viewBox="0 0 999.99991 789.03794"
   enable-background="new 0 0 1000.244 741.819"
   xml:space="preserve"
   inkscape:version="1.1.1 (3bf5ae0d25, 2021-09-20, custom)"
   sodipodi:docname="The_Weather_Dashboard.svg"
   xmlns:inkscape="http://www.inkscape.org/namespaces/inkscape"
   xmlns:sodipodi="http://sodipodi.sourceforge.net/DTD/sodipodi-0.dtd"
   xmlns="http://www.w3.org/2000/svg"
   xmlns:svg="http://www.w3.org/2000/svg"
   xmlns:rdf="http://www.w3.org/1999/02/22-rdf-syntax-ns#"
   xmlns:cc="http://creativecommons.org/ns#"
   xmlns:dc="http://purl.org/dc/elements/1.1/"><metadata
     id="metadata73"><rdf:RDF><cc:Work
         rdf:about=""><dc:format>image/svg+xml</dc:format><dc:type
           rdf:resource="http://purl.org/dc/dcmitype/StillImage" /></cc:Work></rdf:RDF></metadata><defs
     id="defs71" /><sodipodi:namedview
     pagecolor="#ffffff"
     bordercolor="#666666"
     borderopacity="1"
     objecttolerance="10"
     gridtolerance="10"
     guidetolerance="10"
     inkscape:pageopacity="0"
     inkscape:pageshadow="2"
     inkscape:window-width="2497"
     inkscape:window-height="1657"
     id="namedview69"
     showgrid="false"
     inkscape:zoom="1.0263363"
     inkscape:cx="532.96371"
     inkscape:cy="246.5079"
     inkscape:window-x="1303"
     inkscape:window-y="420"
     inkscape:window-maximized="0"
     inkscape:current-layer="g3"
     fit-margin-top="0"
     fit-margin-left="0"
     fit-margin-right="0"
     fit-margin-bottom="0"
     inkscape:pagecheckerboard="1"
     showguides="true"
     inkscape:guide-bbox="true"><sodipodi:guide
       position="849.97568,293.45909"
       orientation="0,-1"
       id="guide341" /><sodipodi:guide
       position="890.37212,133.25695"
       orientation="0,-1"
       id="guide343" /><sodipodi:guide
       position="890.37212,169.80919"
       orientation="1,0"
       id="guide345" /><sodipodi:guide
       position="124.4044,148.54964"
       orientation="1,0"
       id="guide347" /><sodipodi:guide
       position="498.17711,-18.843487"
       orientation="1,0"
       id="guide349" /><sodipodi:guide
       position="464.03986,293.45907"
       orientation="1,0"
       id="guide351" /><sodipodi:guide
       position="534.97123,293.45907"
       orientation="1,0"
       id="guide353" /><sodipodi:guide
       position="109.60855,485.56329"
       orientation="1,0"
       id="guide435" /><sodipodi:guide
       position="345.76632,641.52786"
       orientation="1,0"
       id="guide437" /><sodipodi:guide
       position="646.14909,517.89447"
       orientation="1,0"
       id="guide439" /><sodipodi:guide
       position="448.26278,517.89447"
       orientation="1,0"
       id="guide441" /><sodipodi:guide
       position="548.27255,517.89447"
       orientation="1,0"
       id="guide443" /><sodipodi:guide
       position="485.38856,517.89447"
       orientation="1,0"
       id="guide445" /><sodipodi:guide
       position="511.15365,517.89447"
       orientation="1,0"
       id="guide447" /><sodipodi:guide
       position="889.22647,325.57433"
       orientation="0,-1"
       id="guide31261" /><sodipodi:guide
       position="793.64131,485.56328"
       orientation="0,-1"
       id="guide33903" /><sodipodi:guide
       position="646.14909,517.89447"
       orientation="0,-1"
       id="guide35797" /><sodipodi:guide
       position="646.14909,678.07735"
       orientation="0,-1"
       id="guide36965" /></sodipodi:namedview><g
     id="g3"
     transform="translate(-0.92601793,48.077933)"><g
       id="g67170"
       transform="matrix(1.0448748,0,0,1.0448748,-22.478907,-15.54644)"><polyline
         points="141.665,101.935 141.665,506.967 142.223,515.313 143.338,523.488 145.409,531.417    148.197,539.051 151.794,546.27 155.961,552.938 160.679,559.331 166.103,565.299 171.95,570.574 178.328,575.318 184.995,579.337    192.36,582.953 199.996,585.728 207.92,587.813 216.247,588.908 224.575,589.472 781.03,589.472 789.359,588.908 797.704,587.813    805.609,585.728 813.251,582.953 820.624,579.337 827.284,575.318 833.663,570.574 839.503,565.299 844.92,559.331    849.645,552.938 853.806,546.27 857.434,539.051 860.209,531.417 862.28,523.488 863.39,515.313 863.959,506.967 863.959,101.935    863.39,93.604 862.28,85.396 860.209,77.494 857.434,69.852 853.806,62.612 849.645,55.954 844.92,49.565 839.503,43.591    833.663,38.321 827.284,33.59 820.464,29.562 813.251,26.096 805.609,23.305 797.704,21.24 789.359,20.115 781.03,19.558    224.575,19.558 216.247,20.115 207.92,21.24 199.996,23.305 192.36,26.096 185.136,29.562 178.328,33.59 171.95,38.321    166.103,43.591 160.679,49.565 155.961,55.954 151.794,62.612 148.197,69.852 145.409,77.494 143.338,85.396 142.223,93.604    141.665,101.935  "
         id="polyline5"
         style="fill:#ffffff"
         transform="matrix(1.8353668,0,0,1.8353668,-421.27332,-211.72614)" /><path
         d="m 1167.0991,-43.232123 -2.0392,-15.154625 -3.8322,-14.605848 -5.1372,-14.101125 -6.6917,-13.387169 -7.7031,-12.29145 -8.7125,-11.80691 -10.0174,-11.05075 -10.7993,-9.72377 -11.7647,-8.73451 -12.6053,-7.45159 -13.3229,-6.39809 -14.1213,-5.15738 -14.6077,-3.80839 -15.4281,-2.08497 -15.3841,-1.03148 H -13.113422 l -15.385873,1.03148 -15.384051,2.08497 -14.627877,3.80839 -14.121313,5.15738 -13.344951,6.39809 -12.585114,7.45159 -11.786729,8.73451 -10.79746,9.72377 -9.99724,11.05075 -8.73635,11.80691 -7.68285,12.29145 -6.67156,13.387169 -5.13352,14.101125 -3.83225,14.605848 -2.06112,15.154625 -1.03147,15.406068 V 720.45851 l 1.03147,15.4281 2.06112,15.11057 3.83225,14.6499 5.13352,14.07909 6.67156,13.36331 7.68285,12.29146 8.73635,11.80691 9.99724,11.05075 10.79746,9.74579 11.786729,8.75654 12.331833,7.42772 13.596397,6.67157 14.121313,5.16104 14.627878,3.83042 15.384043,2.01889 15.385887,1.05167 H 1014.9269 l 15.3841,-1.05167 15.4281,-2.01889 14.6077,-3.83042 14.1213,-5.16104 13.5964,-6.67157 12.3318,-7.42772 11.7647,-8.75654 10.7993,-9.74579 10.0174,-11.05075 8.7125,-11.80691 7.7031,-12.29146 6.6917,-13.36331 5.1372,-14.07909 3.8322,-14.6499 2.0391,-15.11057 1.0516,-15.4281 V -27.826055 Z m -16.9423,763.690633 -0.5048,13.84968 -2.0409,13.09351 -3.3477,13.08983 -4.6288,12.0602 -5.6199,11.80692 -6.6936,11.30401 -7.703,10.24686 -8.986,9.51454 -9.7237,8.71433 -10.2707,7.70303 -11.3224,6.92117 -11.5353,5.64375 -12.5649,4.62695 -13.0495,3.34588 -13.3835,2.04277 -13.8497,0.52675 H -13.113422 l -13.829478,-0.52675 -13.343124,-2.04277 -13.091674,-3.34588 -12.56309,-4.62695 -11.55547,-5.64375 -11.302189,-6.92117 -10.270717,-7.70303 -9.747636,-8.71433 -8.96576,-9.51454 -7.70304,-10.24686 -6.69175,-11.30401 -5.64008,-11.80692 -4.60861,-12.0602 -3.34771,-13.08983 -2.04092,-13.09351 -0.50657,-13.84968 V -27.826055 l 0.50657,-13.847842 2.04092,-13.091672 3.34771,-13.13205 4.60861,-12.040005 5.64008,-11.806916 6.69175,-11.282 7.70304,-10.24869 8.96576,-9.5127 9.747636,-8.71433 10.270717,-7.68284 11.026885,-6.94687 11.830774,-5.38863 12.56309,-4.6288 13.091674,-3.32568 13.343124,-2.06295 13.829478,-0.50473 H 1014.9288 l 13.8496,0.50473 13.3835,2.06295 13.0495,3.32568 12.5649,4.6288 11.8088,5.38863 11.0507,6.94687 10.2707,7.68284 9.7238,8.71433 8.986,9.5127 7.703,10.24869 6.6936,11.282 5.6199,11.806916 4.6288,12.040005 3.3477,13.13205 2.0409,13.091672 0.5047,13.847842 V 720.45851 Z"
         id="path7"
         inkscape:connector-curvature="0"
         style="opacity:1;fill:#0c75bc;stroke-width:1.33444" /><path
         d="M 0.01496858,-120.73232 H 1001.5746 c 58.2601,0 105.4749,55.694203 105.4749,104.696663 V 708.6571 c 0,49.03367 -55.931,104.71685 -105.4749,104.71685 H 0.01496858 C -49.538111,813.37395 -105.45808,766.37756 -105.45808,708.6571 V -16.033823 c 0,-57.731463 47.19096,-104.698497 105.47304858,-104.698497"
         id="path9"
         inkscape:connector-curvature="0"
         style="fill:#0c75bc;stroke-width:1.33444" /></g><g
       id="g67165"><g
         id="g67140"><polyline
           points="553.214,214.415 553.214,97.951 608.721,97.951 608.721,123.404 580.189,123.404 580.189,141.857    608.016,141.857 608.016,167.448 580.189,167.448 580.189,188.706 608.721,188.706 608.721,214.415 553.214,214.415  "
           id="polyline13"
           style="fill:#ffffff"
           transform="matrix(1.3753853,0,0,1.3753853,-190.15079,-71.837715)" /><polyline
           points="464.844,97.951 464.844,214.415 491.837,214.415 491.837,168.425 510.57,168.425 510.57,214.415    537.558,214.415 537.558,97.951 510.57,97.951 510.57,140.883 491.837,140.883 491.837,97.951 464.844,97.951  "
           id="polyline23"
           style="fill:#ffffff"
           transform="matrix(1.3753853,0,0,1.3753853,-190.15079,-71.837715)" /><polyline
           points="410.882,214.415 410.882,124.525 390.322,124.525 390.322,97.951 458.275,97.951 458.275,124.525    437.863,124.525 437.863,214.415 410.882,214.415  "
           id="polyline29"
           style="fill:#ffffff"
           transform="matrix(1.3753853,0,0,1.3753853,-190.15079,-71.837715)" /></g><g
         id="g67149"
         transform="translate(-3.4598021)"><polyline
           points="557.252,354.245 557.252,237.922 584.252,237.922 584.252,280.841 602.984,280.841    602.984,237.922 629.966,237.922 629.966,354.245 602.984,354.245 602.984,308.242 584.252,308.242 584.252,354.245    557.252,354.245  "
           id="polyline15"
           style="fill:#ffffff"
           transform="matrix(1.3753853,0,0,1.3753853,-190.15079,-71.837715)" /><polyline
           points="645.917,354.245 645.917,237.922 701.558,237.922 701.558,263.359 673.039,263.359    673.039,281.687 700.725,281.687 700.725,307.259 673.039,307.259 673.039,328.658 701.558,328.658 701.558,354.245    645.917,354.245  "
           id="polyline17"
           style="fill:#ffffff"
           transform="matrix(1.3753853,0,0,1.3753853,-190.15079,-71.837715)" /><polyline
           points="482.743,264.339 482.743,237.922 550.695,237.922 550.695,264.339 530.276,264.339    530.276,354.245 503.303,354.245 503.303,264.339 482.743,264.339  "
           id="polyline25"
           style="fill:#ffffff"
           transform="matrix(1.3753853,0,0,1.3753853,-190.15079,-71.837715)" /><path
           d="m 417.85206,354.81094 8.45312,-46.35599 0.38786,-1.14982 7.87958,47.50581 h -16.72056 m 30.19108,-99.41423 h -41.55176 l -39.42817,159.98895 h 39.42817 l 4.42599,-24.04173 h 30.40014 l 4.39848,24.04173 h 38.2811 z"
           id="path31"
           inkscape:connector-curvature="0"
           style="fill:#ffffff" /><polyline
           points="243.229,354.245 218.619,237.922 245.612,237.922 256.373,307.96 267.832,242.809    290.628,242.809 301.254,307.96 311.885,237.922 338.866,237.922 315.237,354.245 288.949,354.245 278.469,287.273    268.677,354.245 243.229,354.245  "
           id="polyline33"
           style="fill:#ffffff"
           transform="matrix(1.3753853,0,0,1.3753853,-190.15079,-71.837715)" /><polyline
           points="346.275,354.245 346.275,237.922 401.923,237.922 401.923,263.359 373.262,263.359    373.262,281.687 401.088,281.687 401.088,307.259 373.262,307.259 373.262,328.658 401.923,328.658 401.923,354.245    346.275,354.245  "
           id="polyline35"
           style="fill:#ffffff"
           transform="matrix(1.3753853,0,0,1.3753853,-190.15079,-71.837715)" /><path
           d="m 841.29469,324.41905 c -2.6875,1.73711 -5.95954,2.5032 -9.60706,2.5032 v -40.75817 c 3.85245,0 7.09561,1.00679 9.60706,2.30102 6.34603,3.26517 9.43927,9.99493 9.43927,17.87589 0,8.28532 -3.85245,14.48831 -9.43927,18.07806 m 22.89054,14.99445 c 15.57487,-3.06436 20.37909,-23.05971 20.37909,-36.53298 0,-26.91079 -15.56799,-46.92402 -43.271,-47.294 -0.17743,0 -0.56529,-0.18981 -0.77434,-0.18981 h -45.95163 v 159.98895 h 37.1189 v -64.8054 l 19.04771,64.8054 h 39.41855 z"
           id="path43"
           inkscape:connector-curvature="0"
           style="fill:#ffffff" /></g><text
         xml:space="preserve"
         style="font-style:normal;font-weight:normal;font-size:213.333px;line-height:1.25;font-family:sans-serif;fill:#000000;fill-opacity:1;stroke:none"
         x="494.53702"
         y="607.703"
         id="text5445"><tspan
           sodipodi:role="line"
           id="tspan5443"
           x="494.53702"
           y="607.703"
           style="font-style:normal;font-variant:normal;font-weight:normal;font-stretch:normal;font-size:213.333px;font-family:'Futura Condensed Extra';-inkscape-font-specification:'Futura Condensed Extra';text-align:center;text-anchor:middle;fill:#ffffff">DASHBOARD</tspan></text></g></g></svg>
